<svg width="43" height="30" viewBox="0 0 43 30" fill="none" xmlns="http://www.w3.org/2000/svg">
<path d="M25.5 27.5V18.75H23V11.25C23 10.5625 23.245 9.97417 23.735 9.485C24.225 8.99583 24.8133 8.75083 25.5 8.75H30.5C31.1875 8.75 31.7762 8.995 32.2663 9.485C32.7563 9.975 33.0008 10.5633 33 11.25V18.75H30.5V27.5H25.5ZM28 7.5C27.3125 7.5 26.7242 7.25542 26.235 6.76625C25.7458 6.27708 25.5008 5.68833 25.5 5C25.5 4.3125 25.745 3.72417 26.235 3.235C26.725 2.74583 27.3133 2.50083 28 2.5C28.6875 2.5 29.2763 2.745 29.7663 3.235C30.2562 3.725 30.5008 4.31333 30.5 5C30.5 5.6875 30.2554 6.27625 29.7663 6.76625C29.2771 7.25625 28.6883 7.50083 28 7.5Z" fill="#E6E6EB"/>
<path d="M12.5 27.5V18.75H10V11.25C10 10.5625 10.245 9.97417 10.735 9.485C11.225 8.99583 11.8133 8.75083 12.5 8.75H17.5C18.1875 8.75 18.7762 8.995 19.2663 9.485C19.7563 9.975 20.0008 10.5633 20 11.25V18.75H17.5V27.5H12.5ZM15 7.5C14.3125 7.5 13.7242 7.25542 13.235 6.76625C12.7458 6.27708 12.5008 5.68833 12.5 5C12.5 4.3125 12.745 3.72417 13.235 3.235C13.725 2.74583 14.3133 2.50083 15 2.5C15.6875 2.5 16.2763 2.745 16.7663 3.235C17.2562 3.725 17.5008 4.31333 17.5 5C17.5 5.6875 17.2554 6.27625 16.7663 6.76625C16.2771 7.25625 15.6883 7.50083 15 7.5Z" fill="#E6E6EB"/>
</svg>
