<svg width="43" height="30" viewBox="0 0 43 30" fill="none" xmlns="http://www.w3.org/2000/svg">
<path d="M12.5 27.5V20H8.75L12.5625 10.375C12.7708 9.875 13.0938 9.47917 13.5312 9.1875C13.9687 8.89583 14.4583 8.75 15 8.75C15.5417 8.75 16.0313 8.89583 16.4688 9.1875C16.9062 9.47917 17.2292 9.875 17.4375 10.375L21.25 20H17.5V27.5H12.5ZM15 7.5C14.3125 7.5 13.7242 7.25542 13.235 6.76625C12.7458 6.27708 12.5008 5.68833 12.5 5C12.5 4.3125 12.745 3.72417 13.235 3.235C13.725 2.74583 14.3133 2.50083 15 2.5C15.6875 2.5 16.2763 2.745 16.7663 3.235C17.2563 3.725 17.5008 4.31333 17.5 5C17.5 5.6875 17.2554 6.27625 16.7663 6.76625C16.2771 7.25625 15.6883 7.50083 15 7.5Z" fill="#E6E6EB"/>
<path d="M25.5 27.5V20H21.75L25.5625 10.375C25.7708 9.875 26.0938 9.47917 26.5312 9.1875C26.9687 8.89583 27.4583 8.75 28 8.75C28.5417 8.75 29.0313 8.89583 29.4688 9.1875C29.9062 9.47917 30.2292 9.875 30.4375 10.375L34.25 20H30.5V27.5H25.5ZM28 7.5C27.3125 7.5 26.7242 7.25542 26.235 6.76625C25.7458 6.27708 25.5008 5.68833 25.5 5C25.5 4.3125 25.745 3.72417 26.235 3.235C26.725 2.74583 27.3133 2.50083 28 2.5C28.6875 2.5 29.2763 2.745 29.7663 3.235C30.2563 3.725 30.5008 4.31333 30.5 5C30.5 5.6875 30.2554 6.27625 29.7663 6.76625C29.2771 7.25625 28.6883 7.50083 28 7.5Z" fill="#E6E6EB"/>
</svg>
