<svg width="25" height="25" viewBox="0 0 25 25" fill="none" xmlns="http://www.w3.org/2000/svg">
<path d="M14.4763 0.771477C10.6775 -0.766609 6.16089 -6.55651e-06 3.07983 3.07617C-1.02661 7.17285 -1.02661 13.8184 3.07983 17.915L5.81909 20.6494L16.1462 10.3223C13.114 8.07128 12.3669 3.90136 14.4763 0.771477ZM18.3679 11.4111L7.61108 22.1728C9.823 23.5059 12.738 23.2324 14.6472 21.3281L16.3367 19.6435L20.7019 24.6728C21.0681 25.0928 21.7126 25.1172 22.1082 24.7217L24.7205 22.1143C25.116 21.7236 25.0916 21.0791 24.6716 20.7129L19.6277 16.3525L21.3709 14.6094C22.3328 13.6475 22.8601 12.4316 22.9968 11.1768C22.1667 11.5234 21.2585 11.7139 20.3064 11.7139C19.6326 11.7187 18.988 11.5918 18.3679 11.4111ZM15.6238 4.68749C15.6238 7.27538 17.7234 9.37499 20.3113 9.37499C22.8992 9.37499 24.9988 7.27538 24.9988 4.68749C24.9988 2.0996 22.8992 -6.55651e-06 20.3113 -6.55651e-06C17.7234 -6.55651e-06 15.6238 2.0996 15.6238 4.68749Z" fill="#E6E6EB"/>
</svg>
