<svg width="25" height="25" viewBox="0 0 25 25" fill="none" xmlns="http://www.w3.org/2000/svg">
<path d="M24.2322 14.4763C25.7703 10.6775 25.0037 6.16089 21.9275 3.07983C17.8308 -1.02661 11.1853 -1.02661 7.08863 3.07983L4.35425 5.81909L14.6814 16.1462C16.9324 13.114 21.1023 12.3669 24.2322 14.4763ZM13.5925 18.3679L2.83082 7.61108C1.49781 9.823 1.77125 12.738 3.67554 14.6472L5.36011 16.3367L0.330817 20.7019C-0.0891052 21.0681 -0.113519 21.7126 0.281989 22.1082L2.88941 24.7205C3.28004 25.116 3.92457 25.0916 4.29078 24.6716L8.65113 19.6277L10.3943 21.3709C11.3562 22.3328 12.572 22.8601 13.8269 22.9968C13.4802 22.1667 13.2898 21.2585 13.2898 20.3064C13.2849 19.6326 13.4119 18.988 13.5925 18.3679ZM20.3162 15.6238C17.7283 15.6238 15.6287 17.7234 15.6287 20.3113C15.6287 22.8992 17.7283 24.9988 20.3162 24.9988C22.9041 24.9988 25.0037 22.8992 25.0037 20.3113C25.0037 17.7234 22.9041 15.6238 20.3162 15.6238Z" fill="#FF2323"/>
</svg>
