<svg width="14" height="14" viewBox="0 0 14 14" fill="none" xmlns="http://www.w3.org/2000/svg">
<path d="M7.00002 11.6667C8.2377 11.6667 9.42468 11.175 10.2999 10.2998C11.175 9.42467 11.6667 8.23768 11.6667 7C11.6667 5.76233 11.175 4.57534 10.2999 3.70017C9.42468 2.825 8.2377 2.33334 7.00002 2.33334C5.76234 2.33334 4.57536 2.825 3.70019 3.70017C2.82502 4.57534 2.33335 5.76233 2.33335 7C2.33335 8.23768 2.82502 9.42467 3.70019 10.2998C4.57536 11.175 5.76234 11.6667 7.00002 11.6667ZM7.00002 1.16667C7.76606 1.16667 8.52461 1.31756 9.23234 1.61071C9.94007 1.90386 10.5831 2.33354 11.1248 2.87522C11.6665 3.41689 12.0962 4.05995 12.3893 4.76768C12.6825 5.47542 12.8334 6.23396 12.8334 7C12.8334 8.5471 12.2188 10.0308 11.1248 11.1248C10.0308 12.2188 8.54712 12.8333 7.00002 12.8333C3.77419 12.8333 1.16669 10.2083 1.16669 7C1.16669 5.45291 1.78127 3.96918 2.87523 2.87522C3.96919 1.78125 5.45292 1.16667 7.00002 1.16667ZM7.29169 4.08334V7.14584L9.91669 8.70334L9.47919 9.42084L6.41669 7.58334V4.08334H7.29169Z" fill="#E6E6EB"/>
</svg>
