<svg width="25" height="25" viewBox="0 0 25 25" fill="none" xmlns="http://www.w3.org/2000/svg">
<path d="M0 4.6875C0 2.96387 1.40137 1.5625 3.125 1.5625H21.875C23.5986 1.5625 25 2.96387 25 4.6875V20.3125C25 22.0361 23.5986 23.4375 21.875 23.4375H3.125C1.40137 23.4375 0 22.0361 0 20.3125V4.6875ZM3.125 4.6875V7.8125H6.25V4.6875H3.125ZM21.875 4.6875H9.375V7.8125H21.875V4.6875ZM3.125 10.9375V14.0625H6.25V10.9375H3.125ZM21.875 10.9375H9.375V14.0625H21.875V10.9375ZM3.125 17.1875V20.3125H6.25V17.1875H3.125ZM21.875 17.1875H9.375V20.3125H21.875V17.1875Z" fill="#A4A4A4"/>
</svg>
