<svg width="30" height="30" viewBox="0 0 30 30" fill="none" xmlns="http://www.w3.org/2000/svg">
<path d="M18.75 26.25L11.25 23.625L5.4375 25.875C5.02083 26.0417 4.63542 25.9946 4.28125 25.7337C3.92708 25.4729 3.75 25.1242 3.75 24.6875V7.1875C3.75 6.91667 3.82833 6.67708 3.985 6.46875C4.14167 6.26042 4.355 6.10417 4.625 6L11.25 3.75L18.75 6.375L24.5625 4.125C24.9792 3.95833 25.3646 4.00542 25.7188 4.26625C26.0729 4.52708 26.25 4.87583 26.25 5.3125V22.8125C26.25 23.0833 26.1717 23.3229 26.015 23.5312C25.8583 23.7396 25.645 23.8958 25.375 24L18.75 26.25ZM17.5 23.1875V8.5625L12.5 6.8125V21.4375L17.5 23.1875ZM20 23.1875L23.75 21.9375V7.125L20 8.5625V23.1875ZM6.25 22.875L10 21.4375V6.8125L6.25 8.0625V22.875Z" fill="#A4A4A4"/>
</svg>
