<svg width="30" height="30" viewBox="0 0 30 30" fill="none" xmlns="http://www.w3.org/2000/svg">
<g clip-path="url(#clip0_625_1816)">
<path fill-rule="evenodd" clip-rule="evenodd" d="M20 18.75C21.6325 18.75 23.0225 19.7938 23.5375 21.25H25C25.3315 21.25 25.6495 21.3817 25.8839 21.6161C26.1183 21.8505 26.25 22.1685 26.25 22.5C26.25 22.8315 26.1183 23.1495 25.8839 23.3839C25.6495 23.6183 25.3315 23.75 25 23.75H23.5375C23.2792 24.4819 22.8003 25.1157 22.1667 25.564C21.5332 26.0123 20.7761 26.2531 20 26.2531C19.2239 26.2531 18.4668 26.0123 17.8333 25.564C17.1997 25.1157 16.7208 24.4819 16.4625 23.75H5C4.66848 23.75 4.35054 23.6183 4.11612 23.3839C3.8817 23.1495 3.75 22.8315 3.75 22.5C3.75 22.1685 3.8817 21.8505 4.11612 21.6161C4.35054 21.3817 4.66848 21.25 5 21.25H16.4625C16.7213 20.5187 17.2004 19.8855 17.8339 19.4378C18.4675 18.9901 19.2242 18.7498 20 18.75ZM20 21.25C19.6685 21.25 19.3505 21.3817 19.1161 21.6161C18.8817 21.8505 18.75 22.1685 18.75 22.5C18.75 22.8315 18.8817 23.1495 19.1161 23.3839C19.3505 23.6183 19.6685 23.75 20 23.75C20.3315 23.75 20.6495 23.6183 20.8839 23.3839C21.1183 23.1495 21.25 22.8315 21.25 22.5C21.25 22.1685 21.1183 21.8505 20.8839 21.6161C20.6495 21.3817 20.3315 21.25 20 21.25ZM10 11.25C10.7362 11.2499 11.4562 11.4665 12.0702 11.8729C12.6841 12.2792 13.1649 12.8573 13.4525 13.535L13.5363 13.75H25C25.3186 13.7504 25.625 13.8723 25.8567 14.0911C26.0884 14.3098 26.2278 14.6087 26.2465 14.9267C26.2651 15.2448 26.1617 15.558 25.9572 15.8023C25.7527 16.0466 25.4626 16.2036 25.1463 16.2413L25 16.25H13.5375C13.2855 16.9629 12.824 17.5829 12.2134 18.0289C11.6029 18.4749 10.8718 18.726 10.1161 18.7492C9.36033 18.7724 8.61522 18.5668 7.97841 18.1592C7.3416 17.7516 6.84284 17.161 6.5475 16.465L6.4625 16.25H5C4.6814 16.2496 4.37496 16.1277 4.14329 15.9089C3.91162 15.6902 3.77221 15.3913 3.75353 15.0733C3.73486 14.7552 3.83834 14.442 4.04283 14.1977C4.24732 13.9534 4.53738 13.7964 4.85375 13.7587L5 13.75H6.4625C6.72126 13.0187 7.2004 12.3855 7.83393 11.9378C8.46747 11.4901 9.22423 11.2498 10 11.25ZM10 13.75C9.66848 13.75 9.35054 13.8817 9.11612 14.1161C8.8817 14.3505 8.75 14.6685 8.75 15C8.75 15.3315 8.8817 15.6495 9.11612 15.8839C9.35054 16.1183 9.66848 16.25 10 16.25C10.3315 16.25 10.6495 16.1183 10.8839 15.8839C11.1183 15.6495 11.25 15.3315 11.25 15C11.25 14.6685 11.1183 14.3505 10.8839 14.1161C10.6495 13.8817 10.3315 13.75 10 13.75ZM20 3.75C21.6325 3.75 23.0225 4.79375 23.5375 6.25H25C25.3315 6.25 25.6495 6.3817 25.8839 6.61612C26.1183 6.85054 26.25 7.16848 26.25 7.5C26.25 7.83152 26.1183 8.14946 25.8839 8.38388C25.6495 8.6183 25.3315 8.75 25 8.75H23.5375C23.2792 9.48192 22.8003 10.1157 22.1667 10.564C21.5332 11.0123 20.7761 11.2531 20 11.2531C19.2239 11.2531 18.4668 11.0123 17.8333 10.564C17.1997 10.1157 16.7208 9.48192 16.4625 8.75H5C4.66848 8.75 4.35054 8.6183 4.11612 8.38388C3.8817 8.14946 3.75 7.83152 3.75 7.5C3.75 7.16848 3.8817 6.85054 4.11612 6.61612C4.35054 6.3817 4.66848 6.25 5 6.25H16.4625C16.7213 5.51866 17.2004 4.88553 17.8339 4.4378C18.4675 3.99007 19.2242 3.74978 20 3.75ZM20 6.25C19.6685 6.25 19.3505 6.3817 19.1161 6.61612C18.8817 6.85054 18.75 7.16848 18.75 7.5C18.75 7.83152 18.8817 8.14946 19.1161 8.38388C19.3505 8.6183 19.6685 8.75 20 8.75C20.3315 8.75 20.6495 8.6183 20.8839 8.38388C21.1183 8.14946 21.25 7.83152 21.25 7.5C21.25 7.16848 21.1183 6.85054 20.8839 6.61612C20.6495 6.3817 20.3315 6.25 20 6.25Z" fill="#E6E6EB"/>
</g>
<defs>
<clipPath id="clip0_625_1816">
<rect width="30" height="30" fill="white"/>
</clipPath>
</defs>
</svg>
